# xmcd
#
# Track frame offsets:
#	150
#	29260
#	49222
#	77635
#	94130
#	118095
#	133265
#	161197
#	181087
#
# Disc length: 2589 seconds
#
# Revision: 1
# Processed by: cddbd v1.5PL3 Copyright (c) Steve Scherf et al.
# Submitted via: CDex 1.50Beta5
#
DISCID=760a1b09
DTITLE=はちみつぱい - センチメンタル通り
DYEAR=1973
DGENRE=Rock
TTITLE0=塀の上で
TTITLE1=土手の向こうに
TTITLE2=僕の倖せ
TTITLE3=薬屋さん
TTITLE4=釣り糸
TTITLE5=ヒッチハイク
TTITLE6=月夜のドライヴ
TTITLE7=センチメンタル通り
TTITLE8=夜は静か通り静か
EXTD=
EXTT0=
EXTT1=
EXTT2=
EXTT3=
EXTT4=
EXTT5=
EXTT6=
EXTT7=
EXTT8=
PLAYORDER=
